<svg width="16" height="16" viewBox="0 0 16 16" fill="none" xmlns="http://www.w3.org/2000/svg">
<path d="M8.00002 6.66667C6.66669 6.66667 6.00002 7.33333 6.00002 8.66667C6.00002 9.66667 6.99602 11.0233 8.00002 12.3333C8.66669 13 9.00002 13.3333 9.66669 13.6667C10.3334 14 11.3334 14.3333 12.6667 13.3333C14 12.3333 13.6667 11 13 9.33333C12.3334 7.66667 11.4447 5.66667 9.66669 3C9.11069 2.33333 8.66669 2 7.99802 2C7.33135 2 6.91602 2.3 6.33335 3C4.55535 5.66667 3.66669 7.66667 3.00002 9.33333C2.33335 11 2.00002 12.3333 3.33335 13.3333C4.66669 14.3333 5.66669 14 6.33335 13.6667C7.00002 13.3333 7.33335 13 8.00002 12.3333C9.00402 11.0233 10 9.66667 10 8.66667C10 7.33333 9.33335 6.66667 8.00002 6.66667Z" stroke="#0671E0" stroke-width="2" stroke-linecap="round" stroke-linejoin="round"/>
</svg>
