<svg width="34" height="34" viewBox="0 0 34 34" fill="none" xmlns="http://www.w3.org/2000/svg">
<path d="M24.1545 28.73C22.7661 30.0758 21.2503 29.8633 19.7911 29.2258C18.247 28.5742 16.8303 28.5458 15.2011 29.2258C13.1611 30.1042 12.0845 29.8492 10.8661 28.73C3.95281 21.6042 4.97281 10.7525 12.8211 10.3558C14.7336 10.455 16.0653 11.4042 17.1845 11.4892C18.8561 11.1492 20.457 10.1717 22.242 10.2992C24.3811 10.4692 25.9961 11.3192 27.0586 12.8492C22.6386 15.4983 23.687 21.3208 27.7386 22.95C26.9311 25.075 25.8828 27.1858 24.1403 28.7442L24.1545 28.73ZM17.0428 10.2708C16.8303 7.11167 19.3945 4.505 22.3411 4.25C22.752 7.905 19.0261 10.625 17.0428 10.2708Z" fill="black"/>
</svg>
