<svg width="14" height="14" viewBox="0 0 14 14" fill="none" xmlns="http://www.w3.org/2000/svg">
<path fill-rule="evenodd" clip-rule="evenodd" d="M1 4H13L12.3333 13H1.66667L1 4Z" fill="#2F88FF" stroke="#0671E0" stroke-width="2" stroke-linejoin="round"/>
<path fill-rule="evenodd" clip-rule="evenodd" d="M0.565776 3.59681C0.677901 3.47607 0.835233 3.40747 1 3.40747H13C13.1648 3.40747 13.3221 3.47607 13.4342 3.59681C13.5464 3.71755 13.6031 3.87952 13.591 4.04384L12.9243 13.0438C12.9014 13.3533 12.6436 13.5927 12.3333 13.5927H1.66667C1.35637 13.5927 1.09862 13.3533 1.0757 13.0438L0.40903 4.04384C0.396858 3.87952 0.453652 3.71755 0.565776 3.59681ZM1.63812 4.59266L2.21699 12.4075H11.783L12.3619 4.59266H1.63812Z" fill="black"/>
<path fill-rule="evenodd" clip-rule="evenodd" d="M3.74072 1.00006C3.74072 0.672783 4.00604 0.407471 4.33332 0.407471H9.66665C9.99393 0.407471 10.2592 0.672783 10.2592 1.00006V5.3334C10.2592 5.66068 9.99393 5.92599 9.66665 5.92599C9.33937 5.92599 9.07406 5.66068 9.07406 5.3334V1.59266H4.92591V5.3334C4.92591 5.66068 4.6606 5.92599 4.33332 5.92599C4.00604 5.92599 3.74072 5.66068 3.74072 5.3334V1.00006Z" fill="black"/>
<path fill-rule="evenodd" clip-rule="evenodd" d="M3.74072 10.3333C3.74072 10.006 4.00604 9.74072 4.33332 9.74072H9.66665C9.99393 9.74072 10.2592 10.006 10.2592 10.3333C10.2592 10.6606 9.99393 10.9259 9.66665 10.9259H4.33332C4.00604 10.9259 3.74072 10.6606 3.74072 10.3333Z" fill="white"/>
</svg>
