<svg width="24" height="24" viewBox="0 0 24 24" fill="none" xmlns="http://www.w3.org/2000/svg">
<path d="M3.94803 13.318C3.8585 13.5624 3.6772 13.7623 3.44264 13.8752C3.20809 13.988 2.93877 14.005 2.69191 13.9224C2.44505 13.8399 2.2401 13.6643 2.12061 13.4331C2.00113 13.2018 1.97652 12.9331 2.05203 12.684C2.03203 12.744 2.05203 12.682 2.05203 12.682C2.08759 12.5719 2.12898 12.4637 2.17603 12.358C2.25603 12.168 2.37403 11.906 2.53603 11.596C2.86603 10.976 3.38003 10.15 4.13803 9.324C5.66803 7.654 8.17403 6 12 6C15.826 6 18.332 7.654 19.862 9.324C20.6787 10.22 21.341 11.2452 21.822 12.358L21.914 12.584C21.92 12.6 21.94 12.704 21.96 12.804L22 13C22 13 22.168 13.666 21.316 13.948C21.0651 14.0318 20.7912 14.0128 20.5543 13.8951C20.3174 13.7773 20.1368 13.5706 20.052 13.32V13.314L20.04 13.282C19.9396 13.0251 19.8247 12.774 19.696 12.53C19.3404 11.859 18.9009 11.236 18.388 10.676C17.168 9.346 15.174 8 12 8C8.82603 8 6.83203 9.346 5.61203 10.676C4.95151 11.4001 4.41436 12.2278 4.02203 13.126C4.00104 13.1776 3.98104 13.2296 3.96203 13.282L3.94803 13.318ZM8.00003 14C8.00003 12.9391 8.42145 11.9217 9.1716 11.1716C9.92174 10.4214 10.9392 10 12 10C13.0609 10 14.0783 10.4214 14.8285 11.1716C15.5786 11.9217 16 12.9391 16 14C16 15.0609 15.5786 16.0783 14.8285 16.8284C14.0783 17.5786 13.0609 18 12 18C10.9392 18 9.92174 17.5786 9.1716 16.8284C8.42145 16.0783 8.00003 15.0609 8.00003 14Z" fill="white"/>
</svg>
