<svg width="25" height="24" viewBox="0 0 25 24" fill="none" xmlns="http://www.w3.org/2000/svg">
<path d="M4.44778 13.318C4.35825 13.5624 4.17695 13.7623 3.9424 13.8752C3.70784 13.988 3.43852 14.005 3.19166 13.9224C2.9448 13.8399 2.73985 13.6643 2.62037 13.4331C2.50089 13.2018 2.47628 12.9331 2.55178 12.684C2.53178 12.744 2.55178 12.682 2.55178 12.682C2.58735 12.5719 2.62874 12.4637 2.67578 12.358C2.75578 12.168 2.87378 11.906 3.03578 11.596C3.36578 10.976 3.87978 10.15 4.63778 9.324C6.16778 7.654 8.67378 6 12.4998 6C16.3258 6 18.8318 7.654 20.3618 9.324C21.1784 10.22 21.8408 11.2452 22.3218 12.358L22.4138 12.584C22.4198 12.6 22.4398 12.704 22.4598 12.804L22.4998 13C22.4998 13 22.6678 13.666 21.8158 13.948C21.5649 14.0318 21.291 14.0128 21.0541 13.8951C20.8172 13.7773 20.6366 13.5706 20.5518 13.32V13.314L20.5398 13.282C20.4393 13.0251 20.3245 12.774 20.1958 12.53C19.8402 11.859 19.4006 11.236 18.8878 10.676C17.6678 9.346 15.6738 8 12.4998 8C9.32578 8 7.33178 9.346 6.11178 10.676C5.45126 11.4001 4.91412 12.2278 4.52178 13.126C4.5008 13.1776 4.4808 13.2296 4.46178 13.282L4.44778 13.318ZM8.49978 14C8.49978 12.9391 8.92121 11.9217 9.67135 11.1716C10.4215 10.4214 11.4389 10 12.4998 10C13.5606 10 14.5781 10.4214 15.3282 11.1716C16.0784 11.9217 16.4998 12.9391 16.4998 14C16.4998 15.0609 16.0784 16.0783 15.3282 16.8284C14.5781 17.5786 13.5606 18 12.4998 18C11.4389 18 10.4215 17.5786 9.67135 16.8284C8.92121 16.0783 8.49978 15.0609 8.49978 14Z" fill="#000E3B"/>
</svg>
