<svg width="32" height="32" viewBox="0 0 32 32" fill="none" xmlns="http://www.w3.org/2000/svg">
<g clip-path="url(#clip0_1520_9297)">
<path d="M31.2525 16.2989C31.2525 14.9879 31.1462 14.0312 30.9159 13.0391H15.9453V18.9564H24.7327C24.5556 20.4269 23.5989 22.6415 21.4729 24.1296L21.4431 24.3277L26.1765 27.9947L26.5045 28.0274C29.5162 25.2458 31.2525 21.1533 31.2525 16.2989Z" fill="#4285F4"/>
<path d="M15.9454 31.8901C20.2505 31.8901 23.8647 30.4727 26.5046 28.0279L21.473 24.1301C20.1266 25.0691 18.3194 25.7246 15.9454 25.7246C11.7289 25.7246 8.15015 22.9432 6.87442 19.0986L6.68743 19.1145L1.76554 22.9236L1.70117 23.1025C4.32322 28.3112 9.70911 31.8901 15.9454 31.8901Z" fill="#34A853"/>
<path d="M6.87401 19.0987C6.5374 18.1066 6.3426 17.0435 6.3426 15.9451C6.3426 14.8466 6.5374 13.7837 6.85631 12.7915L6.84739 12.5803L1.86382 8.70996L1.70076 8.78752C0.620092 10.949 0 13.3762 0 15.9451C0 18.5141 0.620092 20.9412 1.70076 23.1026L6.87401 19.0987Z" fill="#FBBC05"/>
<path d="M15.9454 6.16537C18.9395 6.16537 20.9592 7.45869 22.1108 8.53948L26.6109 4.14571C23.8471 1.57679 20.2505 0 15.9454 0C9.70911 0 4.32322 3.57875 1.70117 8.78742L6.85671 12.7915C8.15015 8.94693 11.7289 6.16537 15.9454 6.16537Z" fill="#EB4335"/>
</g>
<defs>
<clipPath id="clip0_1520_9297">
<rect width="31.2672" height="32" fill="white"/>
</clipPath>
</defs>
</svg>
