<svg width="16" height="16" viewBox="0 0 16 16" fill="none" xmlns="http://www.w3.org/2000/svg">
<path d="M8.00004 1.33325C7.12456 1.33325 6.25765 1.50569 5.44882 1.84072C4.63998 2.17575 3.90505 2.66682 3.286 3.28587C2.03575 4.53612 1.33337 6.23181 1.33337 7.99992C1.33337 9.76803 2.03575 11.4637 3.286 12.714C3.90505 13.333 4.63998 13.8241 5.44882 14.1591C6.25765 14.4941 7.12456 14.6666 8.00004 14.6666C9.76815 14.6666 11.4638 13.9642 12.7141 12.714C13.9643 11.4637 14.6667 9.76803 14.6667 7.99992C14.6667 7.12444 14.4943 6.25753 14.1592 5.4487C13.8242 4.63986 13.3331 3.90493 12.7141 3.28587C12.095 2.66682 11.3601 2.17575 10.5513 1.84072C9.74243 1.50569 8.87552 1.33325 8.00004 1.33325ZM8.00004 5.59325C9.07572 6.29211 10.3306 6.66487 11.6134 6.66658C12.1334 6.66658 12.6334 6.60659 13.1134 6.49325C13.2534 6.96658 13.3334 7.47325 13.3334 7.99992C13.3334 10.9399 10.94 13.3333 8.00004 13.3333C6.00004 13.3333 4.26004 12.2266 3.33337 10.5933L4.50004 9.33325V8.66658C4.50004 8.44557 4.58784 8.23361 4.74412 8.07733C4.9004 7.92105 5.11236 7.83325 5.33337 7.83325C5.55439 7.83325 5.76635 7.92105 5.92263 8.07733C6.07891 8.23361 6.16671 8.44557 6.16671 8.66658V9.33325H8.00004M10.6667 7.83325C10.4457 7.83325 10.2337 7.92105 10.0775 8.07733C9.92117 8.23361 9.83337 8.44557 9.83337 8.66658C9.83337 8.8876 9.92117 9.09956 10.0775 9.25584C10.2337 9.41212 10.4457 9.49992 10.6667 9.49992C10.8877 9.49992 11.0997 9.41212 11.256 9.25584C11.4122 9.09956 11.5 8.8876 11.5 8.66658C11.5 8.44557 11.4122 8.23361 11.256 8.07733C11.0997 7.92105 10.8877 7.83325 10.6667 7.83325Z" fill="#455764"/>
</svg>
