<svg width="24" height="24" viewBox="0 0 24 24" fill="none" xmlns="http://www.w3.org/2000/svg">
<path opacity="0.5" d="M15.2729 18.728C13.9423 18.7282 12.6414 18.3338 11.5349 17.5947C10.4284 16.8555 9.56588 15.8049 9.05647 14.5756C8.54706 13.3463 8.41362 11.9935 8.67303 10.6884C8.93244 9.38325 9.57304 8.18434 10.5138 7.24327C11.4546 6.3022 12.6533 5.66124 13.9584 5.40145C15.2635 5.14165 16.6163 5.27469 17.8457 5.78373C19.0752 6.29277 20.1261 7.15496 20.8655 8.26127C21.605 9.36757 21.9998 10.6683 21.9999 11.999V12C21.9981 13.7836 21.2888 15.4937 20.0277 16.755C18.7665 18.0163 17.0566 18.7259 15.2729 18.728Z" fill="#545454"/>
<path d="M8.72703 18.728C7.39635 18.728 6.09556 18.3334 4.98915 17.5941C3.88274 16.8548 3.02039 15.8041 2.51116 14.5747C2.00194 13.3453 1.8687 11.9925 2.1283 10.6874C2.3879 9.3823 3.02868 8.18349 3.96961 7.24256C4.91054 6.30163 6.10935 5.66085 7.41446 5.40125C8.71956 5.14165 10.0723 5.27489 11.3017 5.78411C12.5311 6.29334 13.5819 7.15568 14.3212 8.2621C15.0604 9.36851 15.455 10.6693 15.455 12C15.4532 13.7838 14.7437 15.494 13.4824 16.7553C12.2211 18.0167 10.5108 18.7261 8.72703 18.728Z" fill="#545454"/>
</svg>
