<svg width="28" height="31" viewBox="0 0 28 31" fill="none" xmlns="http://www.w3.org/2000/svg">
<path d="M0.278383 9.72692V21.2574C0.274746 21.8565 0.430201 22.4459 0.728871 22.9653C1.02754 23.4848 1.45872 23.9156 1.97838 24.2139L11.9714 29.9791C12.4883 30.2775 13.0746 30.4346 13.6714 30.4346C14.2683 30.4346 14.8546 30.2775 15.3714 29.9791L25.4088 24.2139C25.9305 23.918 26.3634 23.4877 26.6624 22.9677C26.9614 22.4477 27.1155 21.8571 27.1088 21.2574V9.72692C27.114 9.12746 26.9592 8.53747 26.6604 8.01778C26.3615 7.49808 25.9295 7.06749 25.4088 6.7704L15.3714 1.01997C14.8546 0.721554 14.2683 0.564453 13.6714 0.564453C13.0746 0.564453 12.4883 0.721554 11.9714 1.01997L1.97838 6.78518C1.46192 7.08336 1.03297 7.51214 0.734583 8.02848C0.436194 8.54482 0.278865 9.13056 0.278383 9.72692Z" fill="#EFEFB4"/>
<path d="M13.671 9.07617L7.89104 15.344C7.8272 15.4163 7.78154 15.5028 7.75784 15.5962C7.73415 15.6897 7.73309 15.7875 7.75478 15.8815C7.77646 15.9754 7.82026 16.0629 7.88252 16.1365C7.94478 16.2101 8.02372 16.2679 8.11278 16.3049H13.671V9.07617Z" fill="#3CA085"/>
<path d="M13.671 13.4961L7.89104 19.7787C7.8272 19.851 7.78154 19.9375 7.75784 20.0309C7.73415 20.1244 7.73309 20.2222 7.75478 20.3162C7.77646 20.4101 7.82026 20.4976 7.88252 20.5712C7.94478 20.6448 8.02372 20.7026 8.11278 20.7396H13.671V13.4961Z" fill="#EE468D"/>
<path d="M13.6719 13.4961L19.4962 19.7787C19.5601 19.851 19.6057 19.9375 19.6294 20.0309C19.6531 20.1244 19.6542 20.2222 19.6325 20.3162C19.6108 20.4101 19.567 20.4976 19.5047 20.5712C19.4425 20.6448 19.3635 20.7026 19.2745 20.7396H13.6719V13.4961Z" fill="#C83B77"/>
<path d="M13.6719 9.07617L19.4962 15.344C19.5601 15.4163 19.6057 15.5028 19.6294 15.5962C19.6531 15.6897 19.6542 15.7875 19.6325 15.8815C19.6108 15.9754 19.567 16.0629 19.5047 16.1365C19.4425 16.2101 19.3635 16.2679 19.2745 16.3049H13.6719V9.07617Z" fill="#46BD9C"/>
</svg>
