<svg width="24" height="24" viewBox="0 0 24 24" fill="none" xmlns="http://www.w3.org/2000/svg">
<path d="M20.3636 9.16589C21.4402 8.08927 20.9493 6.83179 20.3636 6.22028L17.7796 3.63641C16.6943 2.5598 15.4453 3.05073 14.8338 3.63641L13.3695 5.10921H11.1387C9.50213 5.10921 8.55466 5.9705 8.07232 6.96099L4.24799 10.7851V14.2303L3.63644 14.8332C2.55978 15.9184 3.05074 17.1673 3.63644 17.7788L6.22045 20.3626C6.68557 20.8277 7.18514 21 7.65887 21C8.27042 21 8.83029 20.6985 9.16621 20.3626L11.4918 18.0286H14.584C16.0483 18.0286 16.789 17.1156 17.056 16.2198C18.0293 15.9615 18.5634 15.2207 18.7787 14.4973C20.1138 14.1528 20.6133 12.8867 20.6133 11.9995V9.41566H20.1052L20.3636 9.16589ZM18.8907 11.9995C18.8907 12.3871 18.727 12.8608 18.0293 12.8608H17.168V13.7221C17.168 14.1097 17.0044 14.5834 16.3067 14.5834H15.4453V15.4447C15.4453 15.8323 15.2817 16.306 14.584 16.306H10.7855L7.96034 19.131C7.69333 19.3808 7.53829 19.2344 7.44354 19.1396L4.86815 16.573C4.61836 16.306 4.76479 16.1509 4.85954 16.0562L5.97066 14.9365V11.4914L7.69333 9.76879V11.1382C7.69333 12.1804 8.3824 13.7221 10.2773 13.7221C12.1723 13.7221 12.8613 12.1804 12.8613 11.1382H18.8907V11.9995ZM19.1405 7.94286L17.6762 9.41566H11.1387V11.1382C11.1387 11.5258 10.975 11.9995 10.2773 11.9995C9.57965 11.9995 9.416 11.5258 9.416 11.1382V8.55437C9.416 8.15818 9.56242 6.83179 11.1387 6.83179H14.0758L16.0397 4.86805C16.3067 4.61828 16.4617 4.7647 16.5565 4.85944L19.1319 7.42608C19.3816 7.69308 19.2352 7.84811 19.1405 7.94286V7.94286Z" fill="#455764"/>
</svg>
